<svg width="234" height="234" viewBox="0 0 234 234" fill="none" xmlns="http://www.w3.org/2000/svg">
<path d="M194.22 88.14C194.22 149.224 168.851 179.005 145.207 193.474C124.551 206.178 105.159 207.188 105.159 207.188C69.0593 207.188 39.78 177.908 39.78 141.819C39.78 119.608 52.2503 103.647 67.7577 88.1449C108.069 47.8384 103.701 26.8125 140.073 26.8125C169.986 26.8125 194.22 51.0851 194.22 80.9933V88.14Z" stroke="black" stroke-width="9" stroke-linecap="round" stroke-linejoin="round"/>
<path d="M194.22 88.14C194.22 149.224 168.851 179.005 145.207 193.474C124.551 206.178 105.159 207.188 105.159 207.188C69.0593 207.188 39.78 177.908 39.78 141.819C39.78 119.608 52.2503 103.647 67.7577 88.1449C108.069 47.8384 103.701 26.8125 140.073 26.8125C169.986 26.8125 194.22 51.0851 194.22 80.9933V88.14Z" stroke="black" stroke-width="9" stroke-linecap="round" stroke-linejoin="round"/>
<path d="M124.859 49.2082C124.858 50.3247 125.301 51.3956 126.09 52.1855C126.879 52.9754 127.949 53.4196 129.066 53.4202C130.182 53.4209 131.253 52.978 132.043 52.189C132.833 51.4 133.277 50.3295 133.278 49.2131C133.279 48.0967 132.837 47.0254 132.048 46.2351C131.658 45.8437 131.194 45.5331 130.684 45.321C130.173 45.1088 129.626 44.9993 129.073 44.9987C128.52 44.998 127.973 45.1063 127.462 45.3172C126.951 45.5282 126.486 45.8377 126.095 46.2282C125.305 47.0167 124.86 48.0918 124.859 49.2082ZM114.031 167.544C114.029 170.415 115.167 173.169 117.195 175.201C119.223 177.233 121.975 178.376 124.846 178.379C127.717 178.381 130.472 177.243 132.504 175.215C134.535 173.187 135.678 170.434 135.681 167.563V167.544C135.684 164.674 134.546 161.92 132.518 159.888C130.49 157.857 127.739 156.714 124.868 156.712C121.998 156.709 119.244 157.847 117.213 159.875C115.181 161.902 114.039 164.654 114.036 167.524L114.031 167.544Z" stroke="black" stroke-width="9" stroke-linecap="round" stroke-linejoin="round"/>
</svg>
