<?xml version="1.0" encoding="UTF-8" standalone="no"?>
<!-- Created with Inkscape (http://www.inkscape.org/) -->

<svg
   width="180"
   height="180"
   viewBox="0 0 180 180"
   version="1.1"
   id="svg1"
   xml:space="preserve"
   inkscape:version="1.3.2 (091e20ef0f, 2023-11-25, custom)"
   sodipodi:docname="drawing.svg"
   xmlns:inkscape="http://www.inkscape.org/namespaces/inkscape"
   xmlns:sodipodi="http://sodipodi.sourceforge.net/DTD/sodipodi-0.dtd"
   xmlns="http://www.w3.org/2000/svg"
   xmlns:svg="http://www.w3.org/2000/svg"><sodipodi:namedview
     id="namedview1"
     pagecolor="#ffffff"
     bordercolor="#000000"
     borderopacity="0.25"
     inkscape:showpageshadow="2"
     inkscape:pageopacity="0.0"
     inkscape:pagecheckerboard="0"
     inkscape:deskcolor="#d1d1d1"
     inkscape:document-units="px"
     inkscape:zoom="4.4936636"
     inkscape:cx="83.005768"
     inkscape:cy="84.229714"
     inkscape:window-width="1920"
     inkscape:window-height="1018"
     inkscape:window-x="0"
     inkscape:window-y="30"
     inkscape:window-maximized="1"
     inkscape:current-layer="g1" /><defs
     id="defs1"><rect
       x="25.639557"
       y="113.34366"
       width="104.60454"
       height="44.493386"
       id="rect2" /><rect
       x="43.160184"
       y="112.67704"
       width="68.318251"
       height="34.470929"
       id="rect1" /></defs><g
     inkscape:label="Layer 1"
     inkscape:groupmode="layer"
     id="layer1"><g
       style="fill:none"
       id="g1"
       transform="matrix(0.43834092,0,0,0.43834092,32.591441,13.578546)"><g
         id="g5"
         inkscape:export-filename="logo.png"
         inkscape:export-xdpi="576"
         inkscape:export-ydpi="576"><path
           style="fill:#fda138;stroke:#000000;stroke-width:0.880593;stroke-linecap:round;stroke-linejoin:round;stroke-dasharray:none;stroke-opacity:1;paint-order:markers fill stroke;fill-opacity:1"
           d="m 271.62506,178.97522 -16.24615,5.33256 -9.61843,7.98632 1.2536,7.47603 6.17295,8.28212 9.92575,3.9263 8.92928,-3.87304 c 0,0 8.35279,-6.88639 8.35279,-7.37131 0,-0.4849 3.82362,-10.27234 3.82362,-10.27234 0,0 -0.82789,-6.11086 -0.90924,-6.51767 -0.0815,-0.40682 -4.05304,-5.76869 -4.46413,-5.85091 -0.41107,-0.0822 -7.22004,0.88194 -7.22004,0.88194 z"
           id="path5" /><g
           id="g4"
           transform="translate(7.9136255e-6,-83.998699)"><path
             d="m 282.8204,279.92565 c -6.61284,11.40616 -14.574,14.22074 -20.5554,14.36287 -5.23239,0.13603 -8.96278,-1.77472 -8.96278,-1.77472 -6.74088,-3.90808 -9.03837,-12.54522 -5.13145,-19.28408 2.40452,-4.14745 6.46099,-5.77782 11.0349,-6.99372 11.89079,-3.16236 13.35138,-7.56139 20.1431,-3.62382 5.58562,3.23832 7.48312,10.39424 4.24532,15.97897 z"
             stroke="#000000"
             stroke-width="9"
             stroke-linecap="round"
             stroke-linejoin="round"
             id="path1"
             style="stroke-width:4.70638;stroke-dasharray:none" /><text
             xml:space="preserve"
             transform="matrix(2.2813293,0,0,2.2813293,-74.35181,-30.977135)"
             id="text1"
             style="font-size:21.3333px;font-family:Kalpurush;-inkscape-font-specification:'Kalpurush, Normal';text-align:justify;white-space:pre;shape-inside:url(#rect1);fill:#ffffff;stroke-width:3.3;stroke-linecap:round;stroke-linejoin:round;paint-order:markers fill stroke"><tspan
               x="43.160156"
               y="130.58247"
               id="tspan2">h</tspan></text><path
             d="m 36.518655,118.55813 c -0.213333,-0.22755 -0.540444,-0.58311 -0.981332,-1.06666 -0.753777,-0.54045 -1.55022,-0.81067 -2.38933,-0.81067 h -0.298666 c -1.308442,0 -2.467551,0.63289 -3.477328,1.89867 -0.440888,0.768 -0.661332,1.22311 -0.661332,1.36533 0.497777,-0.34133 0.938666,-0.512 1.322665,-0.512 1.095109,0 1.976886,0.41244 2.645329,1.23733 0.312888,0.66845 0.469332,1.20178 0.469332,1.6 0.782221,-0.896 1.507554,-1.83467 2.175997,-2.816 0.554666,-0.49777 0.952888,-0.79644 1.194665,-0.896 z m -0.32,11.05065 c -0.170666,-0.31289 -0.355555,-0.58311 -0.554666,-0.81066 -1.151998,-1.03822 -2.403551,-1.55733 -3.75466,-1.55733 h -0.213333 c -1.564442,0 -2.887107,0.67555 -3.967994,2.02666 -0.58311,0.82489 -0.874665,1.75644 -0.874665,2.79466 0,1.12355 0.405333,2.19733 1.215998,3.22133 1.009776,1.00978 2.00533,1.51467 2.986662,1.51467 h 0.341332 c 1.706664,-0.0996 2.744885,-0.67556 3.114662,-1.728 l 0.064,-0.576 c 0,-0.55467 -0.227555,-1.05956 -0.682665,-1.51467 -0.355555,-0.22755 -0.632888,-0.34133 -0.831999,-0.34133 -0.199111,0 -0.540444,0.007 -1.023999,0.0213 -0.540443,-0.0853 -0.810665,-0.17067 -0.810665,-0.256 0.156444,-0.45511 0.419555,-0.78934 0.789332,-1.00267 0.540444,-0.0853 0.938666,-0.24178 1.194665,-0.46933 0.270222,-0.27022 0.405333,-0.46933 0.405333,-0.59733 v -0.0853 c -0.369777,-0.42667 -0.895999,-0.64 -1.578665,-0.64 -0.45511,0 -1.002665,0.21333 -1.642664,0.64 -0.654221,0.44089 -1.109331,1.13066 -1.365331,2.06933 l -0.04267,0.32 c 0,0.128 0.03555,0.704 0.106666,1.728 -0.08533,0.0711 -0.184889,0.10667 -0.298666,0.10667 -0.483555,0 -0.846221,-0.44089 -1.087998,-1.32267 l -0.02133,-0.32 c 0,-1.25155 0.639999,-2.44622 1.919997,-3.58399 0.924443,-0.64 1.777775,-0.96 2.559996,-0.96 0.739555,0 1.450665,0.26311 2.13333,0.78933 0.455111,0.46933 0.682666,0.91733 0.682666,1.344 0,0.42667 -0.206222,0.86044 -0.618666,1.30133 v 0.0213 c 0.938665,0.512 1.407998,1.45067 1.407998,2.816 v 0.21333 c 0,0.99555 -0.611555,1.856 -1.834664,2.58133 -0.881776,0.42667 -1.770663,0.64 -2.666662,0.64 -1.208887,0 -2.439108,-0.54044 -3.690661,-1.62133 -1.265776,-1.16622 -1.898664,-2.60266 -1.898664,-4.30933 0,-1.59289 0.760888,-3.15733 2.282663,-4.69332 1.066665,-0.88178 2.275552,-1.32267 3.626661,-1.32267 h 0.469333 c 1.180443,0 2.446218,0.384 3.797327,1.152 0.227555,0.19911 0.426666,0.36978 0.597332,0.512 l 0.04267,0.0427 0.341333,-7.03999 c -2.375107,2.10489 -3.598217,3.41333 -3.669328,3.92532 -0.113777,0.73956 -0.248888,1.10934 -0.405332,1.10934 -0.02845,0.0427 -0.163558,0.0782 -0.405333,0.10666 -0.355555,0 -0.668444,-0.14222 -0.938665,-0.42666 -0.398222,-0.35556 -0.597333,-0.66134 -0.597333,-0.91734 0,-0.22755 0.07111,-0.43377 0.213333,-0.61866 0.526221,-0.65422 0.789332,-1.30133 0.789332,-1.94133 0,-0.39822 -0.09244,-0.704 -0.277332,-0.91733 -0.526222,0 -1.144888,0.23467 -1.855997,0.704 -0.469333,0.35555 -0.703999,0.77511 -0.703999,1.25866 -0.170667,0.17067 -0.334222,0.256 -0.490666,0.256 -0.668443,0 -1.287109,-0.33422 -1.855997,-1.00267 -0.128,-0.17066 -0.192,-0.36977 -0.192,-0.59733 0,-0.384 0.426666,-1.37244 1.279998,-2.96533 0.938665,-1.42222 2.055108,-2.34666 3.349328,-2.77333 0.611555,-0.15644 1.080887,-0.23466 1.407998,-0.23466 1.237331,0 2.659551,0.59733 4.26666,1.792 -0.04267,-0.48356 -0.064,-0.79645 -0.064,-0.93867 0,-0.44089 0.206222,-0.768 0.618665,-0.98133 0.469333,0.54044 0.703999,1.05244 0.703999,1.536 -0.170666,1.18044 -0.255999,2.26844 -0.255999,3.26399 0,2.57422 0.199111,5.43288 0.597332,8.57599 -0.05689,0.62577 -0.08533,0.98133 -0.08533,1.06666 0,0.14223 0.0071,0.30578 0.02133,0.49067 -0.08533,1.10933 -0.241777,1.72089 -0.469332,1.83466 -0.497777,-0.24177 -0.867555,-0.71111 -1.109332,-1.408 -0.128,-0.46933 -0.291555,-0.88888 -0.490666,-1.25866 z m 15.637311,-0.34133 c -0.654221,-0.18489 -1.130664,-0.54044 -1.429331,-1.06666 -0.568888,-0.78223 -1.607109,-1.37245 -3.114662,-1.77067 -0.782221,-0.17067 -1.464886,-0.256 -2.047996,-0.256 -1.436443,0.0711 -2.218664,0.19911 -2.346663,0.384 -0.298667,0.21333 -0.568889,0.32 -0.810666,0.32 -0.58311,0 -1.180442,-0.36978 -1.791997,-1.10933 -0.128,-0.17067 -0.192,-0.35556 -0.192,-0.55467 0,-0.32711 0.405333,-0.51911 1.215999,-0.576 1.635553,-0.14222 2.623995,-0.32 2.965328,-0.53333 0.696888,-0.19911 1.407998,-0.59733 2.13333,-1.19466 0.725332,-0.75378 1.087998,-1.51467 1.087998,-2.28267 0,-1.25155 -0.64711,-2.26133 -1.94133,-3.02932 -0.540443,-0.256 -0.981331,-0.384 -1.322664,-0.384 h -0.32 c -0.938665,0 -1.685331,0.47644 -2.239996,1.42933 -0.113778,0.27022 -0.170667,0.59733 -0.170667,0.98133 0,0.39822 0.199111,0.81066 0.597333,1.23733 0.298666,0.18489 0.639999,0.27733 1.023998,0.27733 0.497777,0 0.746666,-0.22044 0.746666,-0.66133 0,-0.19911 -0.405333,-0.67556 -1.215999,-1.42933 -0.213333,-0.31289 -0.319999,-0.51911 -0.319999,-0.61867 0,-0.0569 0.106666,-0.0995 0.319999,-0.128 0.597333,0 1.464887,0.56889 2.602663,1.70667 0.426666,0.46933 0.639999,0.91733 0.639999,1.344 0,0.24177 -0.149333,0.48355 -0.447999,0.72533 -0.241777,0.21333 -0.682666,0.32 -1.322665,0.32 -1.251553,0 -2.375107,-0.56889 -3.370661,-1.70667 -0.298667,-0.52622 -0.448,-1.03111 -0.448,-1.51466 0,-0.91022 0.334222,-1.67822 1.002666,-2.304 0.568888,-0.41244 1.194665,-0.61866 1.87733,-0.61866 1.535997,0 2.986662,0.68266 4.351993,2.04799 0.796443,0.83911 1.194665,1.61422 1.194665,2.32533 0,1.39378 -1.279998,2.88711 -3.839994,4.48 l -0.128,0.128 c 2.460441,0 4.245327,0.46222 5.354658,1.38666 0.170667,0.0711 0.568888,0.40534 1.194665,1.00267 -0.255999,-2.13333 -0.383999,-4.62933 -0.383999,-7.48799 l -0.192,-3.60533 c 0,-0.29867 0.149333,-0.52622 0.447999,-0.68267 h 0.04267 c 0.142222,0 0.284444,0.0498 0.426666,0.14934 0.213333,0.36977 0.319999,0.70399 0.319999,1.00266 -0.05689,0.85333 -0.08533,1.45067 -0.08533,1.792 0,5.5751 0.09956,8.53332 0.298666,8.87465 0.05689,0.31289 0.08533,0.54045 0.08533,0.68267 0,0.32711 -0.064,0.56177 -0.192,0.704 -0.113778,0.14222 -0.199111,0.21333 -0.256,0.21333 z m 7.402654,2.41066 c -1.521775,0 -2.915551,-0.86755 -4.181327,-2.60266 -0.398221,-0.75377 -0.597332,-1.46488 -0.597332,-2.13333 0,-1.25155 0.746665,-2.24711 2.239996,-2.98666 1.109331,-0.35555 2.00533,-0.53333 2.687996,-0.53333 h 0.149333 v -0.0427 c -1.393775,-1.89155 -2.247107,-3.20711 -2.559996,-3.94666 -0.483555,-0.99555 -0.64711,-1.99111 -0.490666,-2.98666 h -0.04267 c -1.123554,0.29867 -2.204441,0.88889 -3.242662,1.77066 -0.682665,0.35555 -1.272887,0.53333 -1.770664,0.53333 -0.184889,0 -0.277333,-0.0427 -0.277333,-0.128 0.04267,-1.10933 1.080887,-2.0551 3.114662,-2.83732 1.649775,-0.75378 3.583994,-1.13067 5.802657,-1.13067 2.545774,0 4.863993,0.46222 6.954656,1.38666 0.483555,0.39823 0.725332,0.82489 0.725332,1.28 v 0.064 c 0.128,0.95289 0.220444,1.72089 0.277333,2.304 -0.156444,1.408 -0.234666,2.68089 -0.234666,3.81866 0,1.69244 0.120889,3.40621 0.362666,5.14132 l -0.02133,0.384 c -0.128,1.05245 -0.256,1.67822 -0.384,1.87733 h -0.08533 c -0.398221,-0.14222 -0.625776,-0.27022 -0.682665,-0.38399 -0.256,-0.18489 -0.519111,-0.63289 -0.789333,-1.344 -0.938665,-1.50755 -1.614219,-2.48177 -2.026663,-2.92266 -0.639999,-0.56889 -1.194664,-0.93156 -1.663997,-1.088 0.412443,0.93866 0.618665,1.80621 0.618665,2.60266 0,1.70667 -0.689777,2.84444 -2.06933,3.41333 -0.611555,0.32711 -1.215998,0.49066 -1.81333,0.49066 z m 6.975989,-4.88532 v -0.0853 c 0.04267,-0.82489 0.106666,-3.2711 0.191999,-7.33865 0.04267,-0.27022 0.128,-0.90311 0.256,-1.89866 -1.834664,-0.72533 -3.391995,-1.11645 -4.671993,-1.17334 0,-0.0285 -0.426666,-0.0569 -1.279998,-0.0853 l -0.831998,-0.0213 -1.877331,0.0213 v 0.0427 c 1.080887,2.70221 1.713775,4.30221 1.898664,4.79999 l 1.898664,2.77333 c 1.137776,0.22755 2.538663,1.13777 4.20266,2.73066 0,0.0427 0.07111,0.12089 0.213333,0.23467 z m -7.914654,3.17866 c 1.123553,0 1.912885,-0.69689 2.367996,-2.09066 0.05689,-0.41245 0.08533,-0.83911 0.08533,-1.28 0,-0.48355 -0.149333,-1.10222 -0.447999,-1.856 h -0.213333 c -0.924443,0 -1.80622,0.36267 -2.645329,1.088 -0.611555,0.73955 -0.917332,1.472 -0.917332,2.19733 0,1.06667 0.405333,1.70667 1.215998,1.92 z m 37.589299,-13.14131 c 0.02845,0.11377 0.04978,0.22044 0.064,0.32 0.199111,0.24177 0.540443,1.40799 1.023998,3.49866 0.02845,0.0142 0.248891,0.71109 0.661333,2.09066 h 0.04267 v -1.28 c 0,-3.49866 0.120889,-5.24799 0.362666,-5.24799 0.142222,-0.36977 0.419555,-0.68266 0.831999,-0.93866 0.298666,0.51199 0.447999,0.98844 0.447999,1.42933 v 0.0853 c -0.170666,1.45067 -0.255999,2.752 -0.255999,3.90399 v 1.42934 c 0,1.15199 0.206222,2.90132 0.618666,5.24799 0.02845,0.11377 0.04267,0.23466 0.04267,0.36266 0,0.61155 -0.206222,1.15911 -0.618666,1.64267 -0.199111,0 -0.661332,-0.47644 -1.386664,-1.42933 -0.227555,-0.31289 -0.58311,-1.51467 -1.066665,-3.60533 -0.05689,-0.0569 -0.277331,-0.79642 -0.661332,-2.21866 h -0.04267 v 0.12799 c 0,1.82045 0.177778,3.48445 0.533333,4.992 v 0.29866 c 0,0.73955 -0.177778,1.25866 -0.533333,1.55733 -0.426666,-0.28444 -0.874665,-0.73955 -1.343998,-1.36533 -0.355555,-0.64 -0.824887,-1.37955 -1.407998,-2.21866 v -0.10667 c -1.16622,2.01955 -3.022217,3.02933 -5.567991,3.02933 -3.271106,0 -6.798211,-1.62844 -10.581316,-4.88532 -1.009777,-1.05245 -1.528887,-1.73511 -1.557331,-2.048 0.611555,0.34133 1.81333,1.28711 3.605327,2.83733 2.858663,2.07644 5.404437,3.11466 7.637322,3.11466 h 0.191999 c 2.403552,0 4.088883,-0.91733 5.055992,-2.752 0.270222,-0.59733 0.405333,-1.1591 0.405333,-1.68533 v -0.27733 c 0,-1.74933 -0.888887,-3.22844 -2.666662,-4.43733 -0.767999,-0.41244 -1.358221,-0.61866 -1.770664,-0.61866 h -0.575999 c -1.208887,0 -2.097775,0.78222 -2.666663,2.34666 -0.07111,0.34133 -0.106666,0.65422 -0.106666,0.93867 0,0.99555 0.312888,1.73511 0.938665,2.21866 h 0.08533 c 0.483555,0 0.725332,-0.29867 0.725332,-0.896 -0.02845,-0.128 -0.298668,-0.73244 -0.810665,-1.81333 v -0.256 c 0,-0.0711 0.106666,-0.12089 0.319999,-0.14933 0.668443,0.0569 1.42222,0.50487 2.26133,1.344 0.71111,0.88177 1.066665,1.66399 1.066665,2.34666 0,0.71111 -0.355555,1.20177 -1.066665,1.472 -0.128,0.0569 -0.376888,0.0995 -0.746665,0.128 -1.066665,0 -2.225775,-0.576 -3.477328,-1.728 -0.981332,-1.33689 -1.471998,-2.53866 -1.471998,-3.60533 0,-0.81067 0.327111,-1.63555 0.981332,-2.47466 0.639999,-0.68267 1.557331,-1.024 2.751996,-1.024 1.649775,0 3.327994,0.64711 5.034658,1.94133 1.592887,1.57867 2.38933,3.21422 2.38933,4.90666 v 0.256 c 0,0.17067 -0.02844,0.39111 -0.08533,0.66133 0.327111,0 0.732443,0.22756 1.215998,0.68267 -0.09956,-1.25155 -0.149333,-2.60266 -0.149333,-4.05333 v -2.90133 c 0,-0.17067 -0.01422,-0.40533 -0.04267,-0.704 v -0.064 c -2.26133,-0.78222 -4.892437,-1.17333 -7.893321,-1.17333 -3.754661,0 -7.303099,0.59022 -10.645316,1.77067 -0.895999,0.41244 -1.777775,0.61866 -2.645329,0.61866 -0.327111,-0.0285 -0.611555,-0.0782 -0.853332,-0.14933 0,-0.58311 0.718221,-1.16622 2.154663,-1.74933 l 4.586659,-1.19467 c 2.545774,-0.48355 4.91377,-0.72533 7.103989,-0.72533 3.42755,0 6.328879,0.41955 8.703986,1.25866 0.07111,-0.0995 0.142222,-0.192 0.213333,-0.27733 0.128,0.15645 0.241778,0.31289 0.341333,0.46933 z m 19.221286,0.768 c 0.0853,0.19911 0.14933,0.42666 0.192,0.68266 0.0285,1.64977 0.0427,2.53155 0.0427,2.64533 0,0.24178 -0.0142,1.52178 -0.0427,3.83999 0,0.31289 0.0924,1.03823 0.27733,2.176 -0.0569,0.96711 -0.16353,1.60711 -0.32,1.92 -0.15644,0.28444 -0.30577,0.47644 -0.448,0.576 -0.42666,-0.11378 -1.0951,-1.67111 -2.00533,-4.672 -0.38399,0.0996 -0.89599,0.40534 -1.53599,0.91734 -0.0569,0 -0.19909,0.20622 -0.42667,0.61866 -0.42667,0.512 -0.95289,0.768 -1.57866,0.768 -0.512,0 -0.95289,-0.13511 -1.32267,-0.40533 0.39822,-0.83911 0.59733,-1.62134 0.59733,-2.34667 0,-0.93866 -0.37689,-1.59288 -1.13066,-1.96266 -0.29867,-0.15644 -0.61867,-0.23466 -0.96,-0.23466 h -0.448 c -0.73955,0 -1.48622,0.36978 -2.23999,1.10933 -0.66845,0.73955 -1.00267,1.61422 -1.00267,2.62399 0,1.05245 0.36978,1.88445 1.10933,2.496 0.0995,0.0569 0.20622,0.0853 0.32,0.0853 h 0.128 c 0.56889,-0.11377 0.85333,-0.39822 0.85333,-0.85333 v -0.128 c 0,-0.0995 -0.22044,-0.60444 -0.66133,-1.51466 -0.0427,-0.11378 -0.064,-0.19911 -0.064,-0.256 0.11378,-0.0996 0.22045,-0.14934 0.32,-0.14934 h 0.10667 c 0.81066,0 1.6711,0.576 2.58133,1.728 0.27022,0.46933 0.40533,0.96711 0.40533,1.49333 -0.22755,1.152 -0.78933,1.728 -1.68533,1.728 h -0.256 c -0.96711,0 -2.01245,-0.45511 -3.136,-1.36533 -1.15199,-1.32267 -1.72799,-2.71644 -1.72799,-4.18133 v -0.256 c 0,-0.896 0.33422,-1.87022 1.00266,-2.92266 0.71111,-0.91022 1.76356,-1.36533 3.15733,-1.36533 1.26577,0 2.61688,0.53333 4.05333,1.6 0.46933,0.38399 0.78933,0.70399 0.96,0.95999 0.39822,-0.21333 0.78933,-0.32 1.17333,-0.32 h 0.192 c 0.85333,0 1.68532,0.34845 2.49599,1.04534 0.0285,-0.96711 0.0427,-1.664 0.0427,-2.09067 v -3.15733 l 0.0427,-0.46933 c -0.0996,0 -0.13512,-0.0924 -0.10667,-0.27733 -1.80622,-1.20889 -3.78311,-1.81333 -5.93066,-1.81333 -2.75911,0 -5.3831,0.50489 -7.87199,1.51466 -0.654219,0.35556 -1.301327,0.53334 -1.941326,0.53334 -0.241777,-0.0285 -0.45511,-0.0711 -0.639999,-0.128 0,-0.49778 0.533332,-0.99556 1.599997,-1.49334 l 3.391998,-1.02399 c 1.89155,-0.41245 3.64088,-0.61867 5.24799,-0.61867 3.66933,0 6.06577,0.98133 7.18932,2.944 z m -1.74934,12.75731 c -0.0142,-0.0711 -0.0213,-0.17778 -0.0213,-0.32 l 0.0213,-0.66133 c 0.18489,-0.68267 0.51911,-1.27289 1.00266,-1.77067 l 0.704,0.72533 c 0.18489,0.34133 0.29155,0.73245 0.32,1.17334 -0.0569,0.36977 -0.18487,0.82488 -0.384,1.36533 1.03822,0.44089 1.86311,1.10933 2.47466,2.00533 0.78222,1.03822 1.17333,2.28977 1.17333,3.75466 0,1.03822 -0.20622,2.19022 -0.61866,3.45599 -0.29867,0.88178 -0.59733,1.45778 -0.896,1.728 0,0.0427 -0.30578,0.34844 -0.91733,0.91733 l -0.512,-0.27733 c 0.0996,-1.024 0.33422,-1.92711 0.704,-2.70933 0.35555,-1.09511 0.53333,-2.11199 0.53333,-3.05066 0,-1.20889 -0.31289,-2.27555 -0.93867,-3.2 z"
             id="text2"
             style="font-size:21.3333px;font-family:'Li Priyasha Bharot Unicode';-inkscape-font-specification:'Li Priyasha Bharot Unicode, Normal';text-align:justify;white-space:pre;fill:#000000;stroke-width:3.3;stroke-linecap:round;stroke-linejoin:round;paint-order:markers fill stroke"
             aria-label="প্রথম আলু"
             transform="matrix(3.5815791,0,0,3.5815791,-127.46434,-202.57735)"
             sodipodi:nodetypes="ccssccsccccccsscscsccccsccccscsccccscccscsccsscscscssccccccccscscccscsccscsccscscccccsccccscscccscsscscsscsccscscscscscccccccsccscscssccscsccccccsccscsccsccccccccscccccccccccccccccccscscscccccccsccscsscscccccscsccccscccsscsscsscscsccsccscccscscssccssccscccccsccccccscccccccscscsscscscssccssccsscsscsccsscscccscccccsccccccccccscccccscc" /><path
             style="fill:none;stroke:#000000;stroke-width:1.38008;stroke-linecap:round;stroke-linejoin:round;stroke-dasharray:none;stroke-opacity:1;paint-order:markers fill stroke"
             id="path3"
             sodipodi:type="arc"
             sodipodi:cx="262.95239"
             sodipodi:cy="286.33405"
             sodipodi:rx="3.2732451"
             sodipodi:ry="3.2408063"
             sodipodi:start="3.12547"
             sodipodi:end="3.1082905"
             sodipodi:open="true"
             sodipodi:arc-type="arc"
             d="m 259.67957,286.38629 a 3.2732451,3.2408063 0 0 1 3.206,-3.29238 3.2732451,3.2408063 0 0 1 3.33907,3.16006 3.2732451,3.2408063 0 0 1 -3.17731,3.31952 3.2732451,3.2408063 0 0 1 -3.36637,-3.13154" /><path
             style="fill:none;stroke:#000000;stroke-width:1.082;stroke-linecap:round;stroke-linejoin:round;stroke-dasharray:none;stroke-opacity:1;paint-order:markers fill stroke"
             id="path4"
             sodipodi:type="arc"
             sodipodi:cx="272.44687"
             sodipodi:cy="269.55722"
             sodipodi:rx="1.9644082"
             sodipodi:ry="2.0375323"
             sodipodi:start="3.12547"
             sodipodi:end="3.1082905"
             sodipodi:open="true"
             sodipodi:arc-type="arc"
             d="m 270.48272,269.59007 a 1.9644082,2.0375323 0 0 1 1.92404,-2.06996 1.9644082,2.0375323 0 0 1 2.00392,1.98676 1.9644082,2.0375323 0 0 1 -1.90684,2.08703 1.9644082,2.0375323 0 0 1 -2.02029,-1.96884" /></g></g></g></g></svg>
